<svg width="420" height="440" viewBox="0 0 420 440" fill="none" xmlns="http://www.w3.org/2000/svg">
<path d="M172.604 349.544C168.526 348.538 164.443 348.273 160.354 348.748L159.996 341.986C163.392 341.794 166.721 342.099 169.984 342.904C173.246 343.708 176.069 344.775 178.452 346.104C180.796 347.423 182.502 348.812 183.571 350.27C183.389 353.686 182.888 356.981 182.066 360.157C180.393 366.624 177.652 372.189 173.843 376.853C170.034 381.516 166.266 384.501 162.54 385.807L153.131 375.948C159.372 373.861 164.746 370.573 169.255 366.082C173.763 361.591 176.709 356.673 178.091 351.329C176.491 350.646 174.662 350.051 172.604 349.544Z" fill="black"/>
<path d="M124.575 347.046C126.996 348.286 129.284 348.38 131.439 347.327C133.575 346.31 136.13 343.709 139.105 339.527L143.063 333.938L148.605 336.17L137.239 363.778L124.873 359.668L130.487 351.76L130.113 351.568C124.007 356.169 118.643 357.533 114.02 355.659L121.566 345.168C122.789 346.019 123.792 346.645 124.575 347.046Z" fill="black"/>
<path d="M91.6232 339.306C86.9168 330.097 86.5008 323.361 90.3753 319.099C92.3933 316.879 94.5097 315.829 96.7245 315.949C98.8822 316.073 101.699 317.64 105.176 320.652C107.383 322.564 109.049 324.298 110.174 325.855C112.013 324.962 113.619 323.76 114.991 322.251C113.792 320.894 112.331 319.47 110.607 317.977C107.463 315.253 104.057 313.175 100.387 311.742L102.942 306.257C105.767 307.488 108.556 309.295 111.307 311.679C116.205 315.922 119.009 319.911 119.719 323.648C118.292 326.169 116.732 328.361 115.036 330.226C111.646 333.955 107.761 336.595 103.381 338.144C98.9701 339.666 95.051 340.054 91.6232 339.306ZM107.37 327.156C107.004 326.786 106.035 325.92 104.463 324.558C102.861 323.17 100.843 321.792 98.4106 320.426C97.8087 320.91 97.2521 321.433 96.7409 321.995C95.1265 323.771 94.0783 325.905 93.5961 328.397C98.365 329.037 102.956 328.623 107.37 327.156Z" fill="black"/>
<path d="M92.174 292.355C92.5542 292.918 92.8169 293.344 92.9622 293.631C92.9485 295.256 92.4194 296.903 91.3747 298.573C90.2741 300.231 88.8993 301.589 87.2504 302.649C85.0967 304.033 82.9953 304.243 80.946 303.278C78.8743 302.28 76.3848 299.625 73.4776 295.314C72.4042 293.722 71.4038 291.988 70.4765 290.112L69.4331 290.925C68.1765 291.923 67.5414 293.234 67.5278 294.859C67.4805 296.506 68.0495 298.208 69.2348 299.965C70.42 301.723 72.1605 303.124 74.4562 304.168L68.6131 311.06C65.5121 308.965 62.7316 306.093 60.2717 302.445C57.8117 298.797 56.7074 295.371 56.9587 292.168C57.1763 288.985 59.0518 286.259 62.5852 283.988C63.3928 283.469 64.0545 283.092 64.5704 282.855L79.4411 275.296L83.2163 279.929L76.4004 285.378L76.6688 285.776C79.852 285.347 82.8043 285.684 85.5258 286.787C88.2136 287.912 90.4297 289.768 92.174 292.355ZM72.4623 288.551L74.1897 291.22C75.6657 293.409 76.9911 295.124 78.1659 296.365C79.4212 296.224 80.419 295.916 81.1593 295.44C81.8996 294.964 82.5392 294.411 83.078 293.779C83.6169 293.148 83.9258 292.64 84.0048 292.257C80.6819 288.688 76.8344 287.452 72.4623 288.551Z" fill="black"/>
<path d="M71.7821 257.67L49.779 268.071L52.4117 272.999L46.6997 275.371L44.6594 270.491L37.0366 274.101L30.035 260.722L39.6256 258.65L37.3019 253.17L41.1597 252.016L44.1942 257.692L69.2318 252.269L71.7821 257.67Z" fill="black"/>
<path d="M63.8235 230.251L34.8918 237.541L30.9999 225.131L62.3951 224.456L63.8235 230.251ZM28.0208 236.658C27.075 237.887 25.8499 238.61 24.3457 238.828C22.8414 239.046 21.4736 238.699 20.2423 237.787C18.9653 236.84 18.2124 235.615 17.9837 234.113C17.7549 232.61 18.1135 231.245 19.0593 230.016C19.9596 228.754 21.1618 228.013 22.6661 227.795C24.1703 227.577 25.5609 227.941 26.8379 228.888C28.0692 229.8 28.7993 231.008 29.0281 232.511C29.2568 234.013 28.9211 235.396 28.0208 236.658Z" fill="black"/>
<path d="M30.2632 194.449L53.4851 192.178L53.5219 191.7L31.3754 182.318L33.0641 177.569L61.4897 191.381L61.8954 196.283L31.2546 207.396L30.2632 194.449Z" fill="black"/>
<path d="M37.7222 149.252C44.6414 141.377 50.8284 138.365 56.2834 140.215C59.1246 141.178 60.9009 142.688 61.6123 144.745C62.2993 146.752 61.8719 149.922 60.33 154.256C59.3513 157.007 58.3385 159.198 57.2916 160.828C58.8173 162.147 60.5462 163.135 62.4782 163.79C63.3088 162.171 64.1062 160.288 64.8704 158.139C66.2648 154.22 66.9537 150.315 66.9371 146.424L73.0523 146.597C72.9448 149.643 72.281 152.881 71.0609 156.311C68.8889 162.416 66.1759 166.522 62.9219 168.628C60.0178 168.319 57.3724 167.76 54.9859 166.951C50.2127 165.333 46.2818 162.838 43.1932 159.468C40.1179 156.061 38.2943 152.655 37.7222 149.252ZM55.0232 158.792C55.2354 158.315 55.69 157.096 56.3872 155.137C57.0978 153.139 57.6438 150.769 58.0252 148.027C57.3456 147.67 56.646 147.369 55.9262 147.125C53.6533 146.354 51.2539 146.238 48.7279 146.775C49.9008 151.354 51.9992 155.359 55.0232 158.792Z" fill="black"/>
<path d="M86.0777 77.3445C86.641 76.8343 87.2721 76.4245 87.9711 76.1151C90.45 76.4596 93.7813 78.1361 97.9649 81.1449L98.3207 80.8227C97.0732 77.4205 96.4848 74.3925 96.5555 71.7387C96.6558 69.0581 97.462 67.033 98.974 65.6635C99.5373 65.1533 100.168 64.7435 100.867 64.4341C104.088 64.8623 108.115 67.0682 112.95 71.0521C117.785 75.0359 122.282 79.2168 126.443 83.5949L118.811 91.2365C112.307 84.394 106.312 78.5212 100.824 73.6182C98.5895 78.2322 101.882 86.3107 110.701 97.8537L105.914 102.918C99.4111 96.075 93.4156 90.2022 87.9281 85.2991C87.09 87.0294 87.1083 89.6026 87.9829 93.0188C88.8596 96.3791 91.2611 100.705 95.1874 105.997L97.8046 109.535L93.7741 113.914L71.004 94.3966L79.1566 84.3417L84.7599 91.8915L85.0712 91.6096C82.8071 84.758 83.1426 80.0029 86.0777 77.3445Z" fill="black"/>
<path d="M134.751 44.3882C145.239 44.1061 151.667 46.5907 154.033 51.8422C155.266 54.5773 155.371 56.9042 154.349 58.8228C153.348 60.6892 150.734 62.5299 146.507 64.345C143.824 65.4972 141.528 66.2436 139.62 66.5843C139.694 68.5982 140.15 70.5351 140.988 72.395C142.741 71.9036 144.665 71.208 146.76 70.3083C150.582 68.6669 153.913 66.5183 156.752 63.8628L160.797 68.4587C158.492 70.4497 155.667 72.1633 152.322 73.5996C146.368 76.1565 141.51 76.959 137.747 76.0069C135.992 73.6702 134.597 71.353 133.562 69.0555C131.491 64.4605 130.637 59.8873 130.998 55.3359C131.397 50.7687 132.648 47.1195 134.751 44.3882ZM139.564 63.5398C140.059 63.3711 141.261 62.8763 143.172 62.0556C145.12 61.2191 147.229 60.0089 149.498 58.425C149.296 57.6848 149.039 56.9682 148.727 56.2753C147.741 54.0872 146.19 52.2507 144.073 50.7658C141.519 54.7353 140.016 58.9933 139.564 63.5398Z" fill="black"/>
<path d="M193.146 30.0773C193.9 29.9775 194.65 29.9993 195.397 30.1425C197.76 32.3312 199.74 36.4066 201.335 42.3687C202.925 48.2912 204.133 54.2239 204.958 60.1668L194.375 62.4755C193.11 53.363 191.62 45.1073 189.905 37.7084C184.901 40.3479 182.52 48.9344 182.762 63.4681L176.947 64.7824L169.819 35.7069L182.276 32.0608L182.42 42.6936L182.956 42.6228C184.063 38.9659 185.493 36.0329 187.246 33.8239C188.998 31.6148 190.965 30.366 193.146 30.0773Z" fill="black"/>
<path d="M236.839 56.039C238.64 54.4018 240.016 52.5289 240.967 50.4202C241.919 48.3115 242.541 46.4503 242.833 44.8366C243.133 43.1835 243.475 39.9547 243.858 35.1499L256.864 35.3881L247.524 65.3746L241.574 64.8945L242.426 53.473L242.012 53.4015C237.682 60.6904 232.325 63.7831 225.939 62.6797C224.993 62.5162 224.233 62.2226 223.66 61.7987C222.092 59.0111 221.462 54.6401 221.769 48.6857C222.084 42.6919 222.769 36.7825 223.825 30.9575L235.811 32.1153C233.852 38.8804 232.563 43.975 231.942 47.3992C231.321 50.8234 230.949 54.5544 230.827 58.5924C233.08 58.4947 235.084 57.6436 236.839 56.039Z" fill="black"/>
<path d="M295.527 82.2135C298.72 84.3454 302.11 85.8145 305.695 86.6209L303.853 92.3872C300.997 91.5863 298.288 90.3309 295.726 88.6209C293.164 86.911 291.097 85.1225 289.524 83.2553C287.928 81.4209 286.913 79.7336 286.478 78.1933C287.631 75.5013 288.919 73.1396 290.342 71.1083C293.21 67.0129 296.747 63.9161 300.95 61.8178C305.187 59.7418 309.007 58.8537 312.41 59.1537L317.154 70.4697C311.401 69.8996 306.249 70.3549 301.697 71.8358C297.167 73.2839 293.732 75.6788 291.391 79.0207C292.651 80.1499 294.029 81.2142 295.527 82.2135Z" fill="black"/>
<path d="M352.411 96.5923C352.886 97.1335 353.268 97.7517 353.559 98.4468C353.002 101.571 350.626 105.382 346.433 109.879C342.27 114.35 337.887 118.51 333.284 122.359L325.47 114.818C332.528 108.916 338.733 103.286 344.084 97.925C339.072 95.1832 330.446 97.7822 318.208 105.722L313.876 101.603L343.987 72.4389L353.974 80.8205L333.545 95.0085L333.902 95.4144C338.083 94.0557 341.804 93.4463 345.065 93.5862C348.353 93.7561 350.801 94.7582 352.411 96.5923Z" fill="black"/>
<path d="M340.959 137.569C340.675 136.952 340.485 136.489 340.388 136.183C340.662 134.578 341.449 133.032 342.746 131.547C344.098 130.082 345.671 128.956 347.466 128.169C349.811 127.142 351.915 127.267 353.78 128.546C355.661 129.862 357.688 132.882 359.86 137.606C360.662 139.351 361.369 141.224 361.982 143.226L363.141 142.587C364.539 141.8 365.376 140.604 365.65 138.999C365.962 137.378 365.674 135.604 364.789 133.678C363.903 131.752 362.413 130.091 360.319 128.694L367.184 122.804C369.904 125.368 372.182 128.649 374.02 132.646C375.858 136.644 376.396 140.207 375.634 143.336C374.908 146.448 372.621 148.847 368.774 150.533C367.895 150.918 367.182 151.187 366.636 151.339L350.766 156.458L347.79 151.278L355.383 146.969L355.183 146.533C351.977 146.453 349.121 145.652 346.616 144.129C344.148 142.591 342.263 140.404 340.959 137.569ZM359.774 144.456L358.5 141.542C357.398 139.144 356.367 137.237 355.409 135.823C354.149 135.764 353.116 135.911 352.31 136.264C351.504 136.617 350.785 137.063 350.152 137.602C349.52 138.142 349.134 138.594 348.994 138.961C351.696 143.017 355.289 144.849 359.774 144.456Z" fill="black"/>
<path d="M354.947 173.329L395.451 162.356L399.955 174.561L356.662 179.047L354.947 173.329Z" fill="black"/>
<path d="M358.526 199.446L400.358 195.806L402.524 208.617L359.152 205.378L358.526 199.446Z" fill="black"/>
<path d="M388.489 239.072C382.672 247.769 376.941 251.545 371.296 250.401C368.356 249.804 366.398 248.53 365.423 246.577C364.479 244.672 364.486 241.469 365.443 236.97C366.051 234.114 366.766 231.81 367.588 230.059C365.904 228.942 364.062 228.181 362.063 227.775C361.453 229.488 360.911 231.46 360.437 233.69C359.571 237.759 359.402 241.724 359.929 245.586L353.851 246.19C353.557 243.151 353.789 239.851 354.546 236.291C355.895 229.953 358.042 225.532 360.988 223.027C363.904 222.966 366.597 223.185 369.067 223.686C374.007 224.688 378.227 226.666 381.729 229.621C385.222 232.614 387.475 235.765 388.489 239.072ZM370.102 231.793C369.955 232.294 369.665 233.561 369.232 235.596C368.791 237.669 368.562 240.092 368.544 242.864C369.264 243.132 369.996 243.342 370.741 243.493C373.093 243.97 375.485 243.781 377.916 242.928C376.153 238.53 373.548 234.818 370.102 231.793Z" fill="black"/>
<path d="M366.303 294.118C365.942 294.787 365.484 295.383 364.929 295.907C361.755 296.57 357.266 295.837 351.462 293.709C345.693 291.6 340.14 289.174 334.804 286.432L339.128 276.514C347.311 280.718 354.926 284.249 361.974 287.105C362.755 281.527 357.141 274.663 345.132 266.515L347.471 261.04L375.394 271.946L371.062 284.153L362.295 278.166L362.039 278.641C364.375 281.64 365.931 284.485 366.706 287.176C367.481 289.867 367.347 292.181 366.303 294.118Z" fill="black"/>
<path d="M333.818 326.366C334.893 325.349 335.611 324.284 335.972 323.172C334.463 320.857 332.679 318.663 330.622 316.591C328.565 314.518 326.661 312.769 324.908 311.344C323.184 309.948 321.924 309.076 321.128 308.728C319.987 310.303 319.421 312.627 319.429 315.701C319.432 317.35 319.961 319.217 321.016 321.302C322.07 323.442 323.611 325.534 325.64 327.578C325.978 327.919 326.627 328.516 327.587 329.37C329.91 329.099 331.987 328.098 333.818 326.366ZM302.866 301.398C305.772 298.649 309.751 296.811 314.804 295.885L315.697 299.169C312.012 300.508 309.326 301.975 307.641 303.569C305.926 305.191 305.113 306.813 305.202 308.435C305.262 310.084 306.025 311.647 307.49 313.124C307.941 313.578 311.36 316.426 317.747 321.669L318.095 321.339C314.638 313.656 315.496 307.367 320.669 302.475C321.366 301.815 322.06 301.379 322.75 301.166C324.868 301.2 327.261 301.908 329.93 303.292C332.599 304.731 335.187 306.714 337.695 309.241C340.935 312.505 342.634 315.522 342.79 318.291C342.946 321.116 341.353 324.109 338.011 327.27C335.57 329.579 332.9 331.004 330 331.546L330.267 333.688L323.124 342.839L302.504 316.189C300.512 313.615 299.522 311.028 299.535 308.429C299.547 305.83 300.657 303.487 302.866 301.398Z" fill="black"/>
<path d="M295.539 361.261C285.081 362.187 278.505 360.104 275.813 355.012C274.411 352.36 274.16 350.046 275.06 348.07C275.943 346.147 278.439 344.15 282.547 342.08C285.154 340.766 287.401 339.881 289.285 339.424C289.085 337.42 288.508 335.516 287.555 333.713C285.835 334.311 283.957 335.123 281.921 336.148C278.206 338.02 275.014 340.368 272.345 343.191L268.017 338.856C270.194 336.728 272.908 334.846 276.159 333.208C281.946 330.292 286.748 329.193 290.566 329.911C292.465 332.134 294.004 334.359 295.182 336.587C297.538 341.043 298.677 345.551 298.601 350.113C298.489 354.692 297.468 358.408 295.539 361.261ZM289.532 342.457C289.049 342.655 287.878 343.223 286.021 344.159C284.128 345.113 282.097 346.449 279.93 348.168C280.178 348.894 280.48 349.593 280.835 350.265C281.957 352.387 283.621 354.123 285.828 355.474C288.131 351.358 289.365 347.019 289.532 342.457Z" fill="black"/>
</svg>
