<svg width="563" height="258" viewBox="0 0 563 258" fill="none" xmlns="http://www.w3.org/2000/svg">
<path d="M56.8575 238.847C57.8337 234.762 58.0802 230.639 57.5971 226.478L64.2616 226.41C64.4638 229.857 64.1745 233.214 63.3935 236.482C62.6126 239.75 61.5714 242.561 60.27 244.916C58.9779 247.232 57.6151 248.9 56.1815 249.918C52.8136 249.586 49.563 248.936 46.4296 247.966C40.0482 245.991 34.5519 242.974 29.9407 238.915C25.3296 234.856 22.3734 230.912 21.0723 227.083L30.7566 217.984C32.8363 224.394 36.0981 229.978 40.5419 234.738C44.9857 239.497 49.8442 242.693 55.1175 244.325C55.7848 242.734 56.3648 240.908 56.8575 238.847Z" fill="black"/>
<path d="M52.3676 200.534C51.4857 203.107 51.6952 205.446 52.9962 207.549C54.2607 209.636 57.1107 212.013 61.5464 214.679L67.4711 218.224L66.0388 224.062L37.8455 214.884L40.1988 201.934L48.5843 206.964L48.7205 206.567C43.4696 200.748 41.4471 195.404 42.6531 190.534L53.7896 197.307C53.1269 198.626 52.6529 199.702 52.3676 200.534Z" fill="black"/>
<path d="M48.3394 177.573C55.7125 170.757 61.8748 168.821 66.8263 171.764C69.4053 173.296 70.9206 175.192 71.3723 177.45C71.8063 179.651 71.0639 182.842 69.1453 187.023C67.9273 189.677 66.7371 191.745 65.5747 193.229C66.8739 194.88 68.4003 196.227 70.1539 197.269C71.1111 195.756 72.0651 193.963 73.0161 191.891C74.7513 188.11 75.819 184.21 76.2192 180.191L81.9731 181.529C81.546 184.653 80.5734 187.869 79.0551 191.177C76.3523 197.066 73.3524 200.79 70.0557 202.347C67.3473 201.478 64.91 200.399 62.7437 199.112C58.4111 196.537 54.9671 193.218 52.4117 189.154C49.8731 185.055 48.5157 181.194 48.3394 177.573ZM63.651 190.698C63.9023 190.246 64.4618 189.074 65.3293 187.184C66.2136 185.257 66.9823 182.915 67.6354 180.157C67.0321 179.659 66.4038 179.216 65.7505 178.828C63.6874 177.602 61.4349 177.027 58.9931 177.103C59.6108 182.05 61.1635 186.582 63.651 190.698Z" fill="black"/>
<path d="M86.0697 175.898C85.7194 176.48 85.4461 176.897 85.2497 177.146C83.8231 177.747 82.1832 177.855 80.33 177.469C78.4658 177.025 76.7603 176.201 75.2135 174.997C73.1932 173.425 72.2198 171.46 72.2933 169.102C72.3874 166.709 73.7738 163.285 76.4523 158.827C77.4412 157.182 78.5819 155.553 79.8743 153.943L78.7708 153.235C77.4256 152.389 76.0398 152.267 74.6132 152.868C73.1551 153.444 71.88 154.64 70.788 156.457C69.696 158.274 69.1248 160.497 69.0746 163.125L60.8488 160.044C61.5158 156.236 62.9826 152.446 65.249 148.675C67.5154 144.903 70.0972 142.535 72.9942 141.569C75.8596 140.578 78.9496 141.373 82.2642 143.952C83.0219 144.542 83.601 145.043 84.0018 145.455L96.2054 157.066L93.5719 162.489L86.2423 157.917L85.9951 158.328C87.5674 161.263 88.3826 164.262 88.4406 167.327C88.4671 170.366 87.6768 173.223 86.0697 175.898ZM81.9867 155.285L80.3013 157.973C78.9415 160.236 77.9393 162.174 77.295 163.786C77.8904 164.953 78.5353 165.808 79.2298 166.348C79.9243 166.888 80.649 167.301 81.404 167.587C82.159 167.873 82.7191 167.981 83.0843 167.913C84.957 163.332 84.5911 159.123 81.9867 155.285Z" fill="black"/>
<path d="M101.169 150.562L82.2501 135.715L79.4918 140.671L74.8475 136.648L77.8484 132.26L71.2888 127.12L78.848 113.797L85.0914 121.537L88.446 116.58L91.2182 119.528L88.0411 125.239L104.351 145.437L101.169 150.562Z" fill="black"/>
<path d="M113.256 134.65L91.8385 114.416L99.1221 103.359L116.87 129.82L113.256 134.65ZM88.7363 107.984C87.2845 107.939 86.0628 107.34 85.0713 106.188C84.0798 105.036 83.5924 103.649 83.6092 102.027C83.6266 100.344 84.1429 98.9371 85.158 97.8058C86.1731 96.6744 87.4066 96.1313 88.8585 96.1764C90.311 96.1614 91.533 96.7299 92.5245 97.882C93.516 99.0341 94.0031 100.451 93.9856 102.134C93.9689 103.756 93.4529 105.133 92.4378 106.265C91.4226 107.396 90.1888 107.969 88.7363 107.984Z" fill="black"/>
<path d="M112.709 89.9295L128.852 106.064L129.207 105.741L121.819 81.8779L126.173 79.6864L134.427 111.615L131.282 115.524L104.352 100.192L112.709 89.9295Z" fill="black"/>
<path d="M135.125 69.7258C144.883 67.5255 151.147 68.951 153.915 74.002C155.357 76.6328 155.704 79.0422 154.955 81.2304C154.219 83.3603 151.976 85.7564 148.225 88.4189C145.843 90.1089 143.78 91.3051 142.036 92.0074C142.32 94.0959 142.952 96.0346 143.932 97.8235C145.516 96.9921 147.237 95.9166 149.096 94.597C152.488 92.1892 155.368 89.3416 157.734 86.0541L162 90.116C160.061 92.6128 157.607 94.9146 154.639 97.0214C149.354 100.772 144.905 102.492 141.292 102.182C139.405 100.062 137.856 97.8973 136.645 95.6874C134.223 91.2678 132.938 86.6499 132.79 81.8338C132.675 76.9945 133.453 72.9585 135.125 69.7258ZM141.659 88.8399C142.102 88.574 143.172 87.8391 144.868 86.6353C146.597 85.4082 148.436 83.762 150.385 81.6966C150.117 80.9607 149.801 80.2595 149.436 79.5931C148.282 77.4885 146.639 75.8535 144.505 74.6883C142.544 79.2954 141.596 84.0126 141.659 88.8399Z" fill="black"/>
<path d="M187.98 42.5083C188.686 42.2265 189.409 42.0669 190.148 42.0293C192.163 43.2859 194.358 46.1444 196.734 50.605L197.18 50.427C197.528 46.6823 198.292 43.544 199.472 41.0123C200.69 38.4658 202.246 36.8144 204.141 36.0581C204.847 35.7764 205.569 35.6168 206.309 35.5792C208.934 37.193 211.512 40.8215 214.044 46.4647C216.576 52.1079 218.732 57.8155 220.511 63.5876L210.64 68.1072C207.859 59.0859 205.112 51.1889 202.399 44.4161C198.506 48.0302 197.968 57.0453 200.784 71.4612L194.479 74.5573C191.699 65.5361 188.952 57.639 186.238 50.8662C184.779 52.2215 183.71 54.7087 183.031 58.3279C182.378 61.8941 182.646 66.9599 183.835 73.5254L184.624 77.9113L179.266 80.6293L167.658 53.3238L179 46.6719L180.699 56.0393L181.089 55.8836C182.005 48.4347 184.303 43.9762 187.98 42.5083Z" fill="black"/>
<path d="M219.462 32.4601C229.562 34.2511 235.084 37.9876 236.028 43.6697C236.52 46.6291 236.036 48.9606 234.578 50.664C233.152 52.3196 230.19 53.6313 225.693 54.599C222.839 55.2134 220.456 55.5013 218.546 55.4627C218.111 57.4772 218.061 59.4906 218.396 61.503C220.195 61.3611 222.209 61.0503 224.438 60.5706C228.505 59.6954 232.229 58.2196 235.61 56.1433L238.324 61.5059C235.62 63.0277 232.489 64.1716 228.93 64.9374C222.595 66.3006 217.748 66.138 214.39 64.4495C213.298 61.7826 212.546 59.2062 212.133 56.7203C211.307 51.7485 211.638 47.0385 213.126 42.5903C214.654 38.1337 216.766 34.7569 219.462 32.4601ZM219.257 52.4284C219.772 52.3585 221.046 52.1047 223.08 51.6671C225.152 51.2211 227.472 50.4358 230.039 49.3111C230.032 48.5361 229.966 47.7738 229.842 47.0241C229.448 44.6565 228.426 42.5265 226.775 40.634C223.336 44.0714 220.83 48.0029 219.257 52.4284Z" fill="black"/>
<path d="M261.281 28.5908C262.039 28.5383 262.784 28.607 263.515 28.797C265.682 31.1325 267.309 35.3296 268.394 41.3884C269.476 47.4072 270.178 53.4123 270.498 59.4038L259.772 61.0486C259.281 51.8617 258.494 43.5172 257.412 36.015C252.21 38.3397 249.116 46.7726 248.131 61.3136L242.234 62.2632L237.592 32.757L250.296 29.8928L249.543 40.5289L250.082 40.4916C251.492 36.906 253.162 34.0642 255.093 31.966C257.023 29.8679 259.086 28.7428 261.281 28.5908Z" fill="black"/>
<path d="M286.336 54.7908C287.944 53.0082 289.104 51.0248 289.817 48.8405C290.53 46.6561 290.944 44.7459 291.058 43.1099C291.174 41.4339 291.16 38.1802 291.015 33.3487L303.941 32.5258L297.955 63.246L292.001 63.2517L291.597 51.7715L291.179 51.7338C287.681 59.3691 282.706 62.8959 276.252 62.3144C275.296 62.2283 274.51 61.9969 273.895 61.6202C272.035 58.9631 270.932 54.6476 270.586 48.6737C270.243 42.6598 270.277 36.7001 270.688 30.7943L282.702 30.9734C281.499 37.8919 280.777 43.087 280.535 46.5586C280.293 50.0302 280.333 53.7881 280.653 57.8323C282.877 57.5509 284.772 56.537 286.336 54.7908Z" fill="black"/>
<path d="M324.419 67.2729C328.081 68.4283 331.689 68.8763 335.244 68.6169L335.583 74.8131C332.695 74.8645 329.782 74.4267 326.845 73.4999C323.908 72.5732 321.394 71.4244 319.305 70.0536C317.206 68.7216 315.688 67.3639 314.752 65.9803C314.861 63.0017 315.21 60.3076 315.797 57.8981C316.98 53.0402 319.123 48.9662 322.225 45.6762C325.365 42.3983 328.541 40.4079 331.752 39.7052L340.046 49.4159C334.596 50.542 330.052 52.4983 326.416 55.2848C322.788 58.0325 320.492 61.3884 319.526 65.3524C321.071 66.0911 322.702 66.7312 324.419 67.2729Z" fill="black"/>
<path d="M367.177 56.0555C367.829 56.3598 368.441 56.7771 369.012 57.3072C370.02 60.5028 369.832 65.1402 368.447 71.2193C367.075 77.2608 365.373 83.1041 363.339 88.749L353.247 85.0305C356.364 76.3748 358.896 68.347 360.842 60.9468C355.356 60.542 349.369 66.7604 342.881 79.602L337.315 77.5991L348.734 36.9037L361.041 40.4685L350.652 62.7874L351.142 63.0157C353.997 59.908 356.821 57.7089 359.615 56.4185C362.445 55.1451 364.965 55.024 367.177 56.0555Z" fill="black"/>
<path d="M364.178 92.9663C363.608 92.5962 363.197 92.3062 362.947 92.0963C362.218 90.5335 361.904 88.7189 362.006 86.6524C362.159 84.5719 362.674 82.6555 363.552 80.9031C364.699 78.6143 366.337 77.4738 368.468 77.4817C370.632 77.5113 373.895 78.9413 378.257 81.7715C379.868 82.8165 381.483 84.0302 383.102 85.4126L383.593 84.1671C384.175 82.6495 384.102 81.1093 383.373 79.5466C382.663 77.9481 381.418 76.5719 379.639 75.4181C377.861 74.2642 375.787 73.7004 373.417 73.7268L375.099 64.5115C378.612 65.1321 382.214 66.6398 385.906 69.0346C389.597 71.4293 392.068 74.2175 393.32 77.3989C394.59 80.5446 394.284 83.995 392.403 87.7501C391.972 88.6084 391.599 89.2661 391.281 89.7233L382.453 103.615L377.228 100.864L380.37 92.5963L379.968 92.335C377.537 94.1697 374.947 95.1671 372.199 95.3271C369.469 95.4514 366.795 94.6645 364.178 92.9663ZM382.175 87.7963L379.534 86.0118C377.319 84.575 375.445 83.5245 373.91 82.8605C372.938 83.5571 372.256 84.2987 371.861 85.0855C371.467 85.8723 371.192 86.6886 371.035 87.5345C370.878 88.3804 370.854 89.0047 370.963 89.4074C375.33 91.3404 379.068 90.8034 382.175 87.7963Z" fill="black"/>
<path d="M385.565 108.435L405.446 71.0286L416.464 77.4472L390.463 111.723L385.565 108.435Z" fill="black"/>
<path d="M398.996 121.025L421.773 85.2899L432.205 92.6046L403.597 124.711L398.996 121.025Z" fill="black"/>
<path d="M437.984 115.287C441.657 125.529 441.559 132.785 437.691 137.053C435.677 139.276 433.655 140.237 431.626 139.935C429.65 139.635 427.171 137.734 424.187 134.233C422.293 132.01 420.884 130.02 419.961 128.263C418.205 129.078 416.643 130.241 415.273 131.753C416.279 133.3 417.521 134.942 419 136.677C421.698 139.844 424.684 142.338 427.957 144.161L425.216 149.844C422.705 148.303 420.268 146.147 417.908 143.377C413.705 138.445 411.41 133.947 411.023 129.885C412.515 127.293 414.107 125.064 415.799 123.196C419.184 119.462 422.946 116.935 427.086 115.616C431.252 114.327 434.884 114.218 437.984 115.287ZM422.633 127.087C422.943 127.512 423.773 128.517 425.122 130.1C426.497 131.714 428.254 133.348 430.395 135.003C430.983 134.532 431.532 134.014 432.042 133.451C433.654 131.673 434.77 129.466 435.392 126.831C431.05 125.773 426.797 125.858 422.633 127.087Z" fill="black"/>
<path d="M462.519 151.772C462.937 152.406 463.254 153.102 463.468 153.859C462.705 157.172 460.206 161.134 455.971 165.743C451.766 170.326 447.383 174.566 442.821 178.463L436.19 170.032C443.185 164.057 449.37 158.33 454.744 152.853C450.325 149.685 442.14 152.055 430.191 159.965L426.51 155.357L447.454 133.474L456.03 142.906L447.273 148.663L447.571 149.114C451.098 148.189 454.168 147.942 456.782 148.372C459.395 148.802 461.308 149.935 462.519 151.772Z" fill="black"/>
<path d="M470.696 179.787C470.054 178.453 469.27 177.466 468.344 176.825C465.793 177.759 463.278 178.998 460.8 180.542C458.322 182.087 456.184 183.56 454.387 184.961C452.624 186.34 451.472 187.386 450.932 188.098C452.07 189.637 454.058 190.788 456.896 191.549C458.418 191.96 460.285 191.897 462.498 191.361C464.763 190.84 467.117 189.818 469.561 188.295C469.969 188.041 470.698 187.539 471.75 186.79C472.14 184.392 471.789 182.057 470.696 179.787ZM439.14 204.583C437.406 200.978 436.807 196.526 437.345 191.224L440.619 191.151C440.839 195.184 441.452 198.246 442.458 200.336C443.482 202.463 444.754 203.685 446.275 204.002C447.813 204.355 449.464 203.982 451.23 202.882C451.773 202.543 455.342 199.827 461.937 194.733L461.728 194.301C453.689 195.844 448.126 193.407 445.038 186.992C444.622 186.127 444.411 185.321 444.405 184.575C445.019 182.459 446.332 180.235 448.343 177.904C450.406 175.588 452.948 173.488 455.969 171.605C459.873 169.172 463.124 168.224 465.721 168.761C468.369 169.312 470.691 171.661 472.685 175.806C474.143 178.833 474.721 181.87 474.421 184.914L476.471 185.184L482.943 194.644L452.683 208.653C449.76 210.006 447.101 210.351 444.708 209.687C442.315 209.024 440.459 207.322 439.14 204.583Z" fill="black"/>
<path d="M488.225 208.443C487.787 219.171 484.932 225.694 479.659 228.013C476.913 229.221 474.641 229.285 472.843 228.204C471.094 227.144 469.48 224.437 468.001 220.081C467.062 217.316 466.491 214.955 466.289 212.998C464.324 213.035 462.408 213.465 460.54 214.286C460.9 216.087 461.446 218.067 462.179 220.226C463.517 224.165 465.382 227.611 467.774 230.564L463.025 234.612C461.244 232.217 459.768 229.297 458.597 225.85C456.513 219.714 456.062 214.732 457.245 210.903C459.639 209.154 461.989 207.772 464.296 206.757C468.909 204.728 473.419 203.942 477.824 204.398C482.243 204.892 485.71 206.241 488.225 208.443ZM469.257 212.999C469.387 213.507 469.787 214.746 470.456 216.716C471.138 218.723 472.173 220.902 473.56 223.252C474.294 223.06 475.009 222.81 475.705 222.504C477.902 221.538 479.795 219.987 481.384 217.851C477.694 215.165 473.651 213.547 469.257 212.999Z" fill="black"/>
</svg>
